<svg id="Capa_1" data-name="Capa 1" xmlns="http://www.w3.org/2000/svg" viewBox="0 0 250 250"><defs><style>.cls-1{fill:#203c79;}</style></defs><path class="cls-1" d="M61.89,232.92c-5.1,0-5.17-2.23-5.21-3.19a2.58,2.58,0,0,1,.66-2c.81-.84,2.39-1.29,4.57-1.29H82.23a3.1,3.1,0,0,0,3.48-2.59q2.39-12.27,4.82-24.53l2.09-10.58a2.13,2.13,0,0,0,0-.89c0-.07,0-.14,0-.24l-.17-1.3H88.53q-8.61,0-17.22-.05t-17.23,0c-9,0-16.34.06-23.19.18h-.46c-12,0-22.77-8.78-24.5-20a2,2,0,0,0-.36-.86V37.92c.46-1.11.88-2.24,1.29-3.34a33.05,33.05,0,0,1,3.31-7.2c4.71-6.93,11.65-10.3,21.21-10.3q27.47,0,54.78,0H188.07l30.64,0c7.36,0,13.16,2.09,17.78,6.38,5.22,4.86,7.88,10.57,7.89,17,.06,40.89.06,82.13,0,122.58,0,12.33-10.91,23.2-23.3,23.27q-12.72.06-25.43.05H156.82l8,40.12H187a26.58,26.58,0,0,1,3.34.14,3.22,3.22,0,0,1,3,3.06,3.18,3.18,0,0,1-2.78,3,14.62,14.62,0,0,1-2.55.21H61.89Zm29.86-6.57h66.49l-8-39.88H99.7ZM12.07,150.77c0,1.42,0,2.83-.06,4.23a81.86,81.86,0,0,0,.14,9.26c.84,9.22,8.46,15.66,18.53,15.66h189c.47,0,.94,0,1.41,0a17.54,17.54,0,0,0,16.75-15.41A74.62,74.62,0,0,0,238,155c0-1.41-.07-2.83-.07-4.27v-1.5H12.07Zm0-8.27H238v-4.23q0-13.11,0-26.21c0-22.68-.06-46.13.12-69.2a19.67,19.67,0,0,0-5.43-14,19,19,0,0,0-13.86-5.36c-36,.06-72.13.06-103.2.06H31.28a23.49,23.49,0,0,0-6,.64C17,26.5,12,33,12,41.6q0,31.93,0,63.87V121a9,9,0,0,0,.12,1.28c0,.19.05.38.07.58l.15,1.34H29.7c3.58,0,7.17,0,10.75,0,2.55,0,3.31,1,3.74,2.07A2.84,2.84,0,0,1,44,129a4.28,4.28,0,0,1-3.6,1.61c-3.42,0-6.83,0-10.24,0H12.07Z"/><path class="cls-1" d="M149.9,121.15a4.76,4.76,0,0,1-3-1.73c-2-2-4-4-6.14-6.2l-4.1-4.17-3.25,3.43c-1.68,1.76-3.31,3.47-4.92,5.19-1.15,1.23-2.13,1.78-3.15,1.78a3.44,3.44,0,0,1-1-.14c-1.37-.4-2-1.33-2.56-3.69q-1.2-5.27-2.39-10.53c-2.18-9.64-4.43-19.6-6.84-29.37a4.76,4.76,0,0,1,.49-4.07,3.57,3.57,0,0,1,2.91-1.22,6.45,6.45,0,0,1,1.64.22c8.78,2.22,17.74,4.27,26.42,6.26,4.63,1.06,9.27,2.12,13.9,3.21,1.84.44,3,1.28,3.35,2.39s-.27,2.58-1.64,4-2.89,2.92-4.34,4.38l-2.63,2.65a2.15,2.15,0,0,0-.45.68c0,.06-.07.14-.13.23l-.55,1L155,98.9q3.06,3,6.13,6c2.38,2.39,2.4,3.83.07,6.2-3.08,3.13-5.81,5.85-8.33,8.32A4.71,4.71,0,0,1,149.9,121.15Zm-13.16-19.57c.9,0,2,.65,3.38,2,2,2,4,4,5.95,6l3.73,3.73,5.36-5.43-3.77-3.73c-2.06-2-4.11-4.06-6.14-6.1-2.45-2.46-2.46-3.79-.06-6.18,1-1,2-1.85,3.13-2.78l1.51-1.27,1-.92-1.7-2.27-29.52-6.79,7.46,32.2,3.49-3.58c1-1,1.9-2,2.82-2.88C134.8,102.22,135.86,101.58,136.74,101.58Z"/><path class="cls-1" d="M116.5,58.11a3.07,3.07,0,0,1-3.07-2.69,39.67,39.67,0,0,1,0-7.47,2.91,2.91,0,0,1,3.11-2.7h.22a3.08,3.08,0,0,1,2.92,3.06,20.86,20.86,0,0,1,0,2.25c0,.39,0,.77,0,1.16s0,.68,0,1c0,.76,0,1.47,0,2.16a3.28,3.28,0,0,1-3.07,3.2Z"/><path class="cls-1" d="M130.49,64a3.7,3.7,0,0,1-2.32-1.17,2.83,2.83,0,0,1-.44-3.54,54.77,54.77,0,0,1,6-6,2.07,2.07,0,0,1,1.39-.56,2,2,0,0,1,1.27.47,10.66,10.66,0,0,1,1.79,2.11l.22.31v0a7,7,0,0,0-.16.82,5.51,5.51,0,0,1-.11.58l-1,1.11a49.6,49.6,0,0,1-5.52,5.43A1.63,1.63,0,0,1,130.49,64Z"/><path class="cls-1" d="M102.62,63.94a2.11,2.11,0,0,1-1.25-.42,33,33,0,0,1-6.31-6.3c-.85-1.06-.29-2.35.51-3.21a3.5,3.5,0,0,1,2.18-1.28,1,1,0,0,1,.64.23,58.5,58.5,0,0,1,6.27,5.94l1,1a3,3,0,0,1,0,.42c0,.12,0,.23,0,.33A3.42,3.42,0,0,1,102.62,63.94Z"/><path class="cls-1" d="M93.41,77.92l-1.13,0c-.85,0-1.66-.06-2.44-.16a3.08,3.08,0,0,1-2.8-3,2.84,2.84,0,0,1,2.46-3c1.33-.12,2.67-.18,4-.18a39.92,39.92,0,0,1,4.13.21c1.67.17,2.34,1.7,2.26,3.14a2.88,2.88,0,0,1-2.68,2.81c-.84.11-1.7.14-2.61.17Z"/><path class="cls-1" d="M98,96.55a2.08,2.08,0,0,1-1.27-.44A9.64,9.64,0,0,1,94.89,94l-.23-.31v0q.09-.4.15-.84c0-.18.06-.43.09-.56.38-.39.76-.8,1.13-1.2a49.69,49.69,0,0,1,5.62-5.44,1.56,1.56,0,0,1,1-.36,3.33,3.33,0,0,1,2.25,1.26c.39.44,1.57,2,.39,3.47a48.25,48.25,0,0,1-5.9,6A2.13,2.13,0,0,1,98,96.55Z"/><path class="cls-1" d="M55.22,130.56A3.42,3.42,0,0,1,52,127.37a3.05,3.05,0,0,1,.92-2.18,3.3,3.3,0,0,1,2.33-1,3,3,0,0,1,3.1,3.21,3.14,3.14,0,0,1-3.11,3.16Z"/><path class="cls-1" d="M124.76,172.35a8,8,0,0,1-7.64-8,7.85,7.85,0,0,1,8-7.61h.42a8,8,0,0,1,7.29,8.07,8,8,0,0,1-7.8,7.53Z"/></svg>