<svg id="Capa_1" data-name="Capa 1" xmlns="http://www.w3.org/2000/svg" viewBox="0 0 250 250"><defs><style>.cls-1{fill:#203c79;}</style></defs><path class="cls-1" d="M215.31,199.83C212,201,209,202.58,205.81,203a94.84,94.84,0,0,1-13.81.45,4.38,4.38,0,0,1-4.16-4.41c0-.3,0-.61,0-.92V125.71c0-3.47,1.77-5.41,5.18-5.3a134.17,134.17,0,0,1,14.87,1c2.57.38,5,2,7.51,3V108.14c-1.8-.63-3.72-1.14-5.5-1.94-7.76-3.5-12.53-9.53-14.56-17.74-5-20.45-17.43-35.14-35.64-45.1a70.63,70.63,0,0,0-43-8.37C88.22,38.35,63.08,58.37,55.44,85.45c-.59,2.07-1,4.21-1.74,6.22a24.89,24.89,0,0,1-17.43,15.9l-1.75.52v16.69c.61-.35,1.08-.6,1.53-.88a22.4,22.4,0,0,1,11.34-3.48c3.26-.09,6.53-.08,9.79,0s5,1.91,5,5.14q0,36.39,0,72.79c0,3.34-1.8,5.28-5.1,5.21-4.73-.1-9.59.23-14.15-.76-8.76-1.91-14.37-7.71-16.89-16.33a2.78,2.78,0,0,0-2.23-2.23,23,23,0,0,1-.19-44.44,1.82,1.82,0,0,0,1.6-2.15c-.05-11-.11-22.05,0-33.07C25.48,72.49,39,47,64.06,27.48A97.56,97.56,0,0,1,105.21,8.76,97.61,97.61,0,0,1,168,16.56,99.13,99.13,0,0,1,214.38,61c5.71,10.93,9.46,22.55,10,34.88.57,13.65.38,27.33.44,41,0,1.69.33,2.49,2.18,3,9.84,2.77,16.44,12.11,16.33,22.73a23.06,23.06,0,0,1-16.78,21.47,1.93,1.93,0,0,0-1.73,2.24c0,5.11.23,10.26-.39,15.3a31.92,31.92,0,0,1-31.18,27.7c-16,.19-31.91.07-47.86,0-1.69,0-2.55.38-3.21,2.11a18.29,18.29,0,0,1-22.09,11.09,18.48,18.48,0,0,1,6.72-36.2c7.58.83,12.84,5,15.58,12.14a2.15,2.15,0,0,0,2.4,1.63c15.77,0,31.54,0,47.32,0a23,23,0,0,0,22.81-17.71C215.1,201.53,215.18,200.62,215.31,199.83ZM34.54,98.34a15.82,15.82,0,0,0,7.56-4.87c2.37-2.68,3.13-6,4.12-9.35,9.07-30.21,29.71-48.47,59.64-56.49,18.12-4.85,36-2.87,53,5,23.46,10.93,39.27,28.54,45.63,54a15.41,15.41,0,0,0,5.35,8.62,45.2,45.2,0,0,0,5,3.07l.61-.69c-3.38-30.59-18.39-54.13-45.12-69.24C137.61,10,104.72,11.51,73.51,32.32,50.33,47.78,37.4,70,34.54,98.34ZM52.8,194V129.75c-2.06,0-4-.16-6,0a13.81,13.81,0,0,0-12.37,12.86c-.23,3.9-1.56,5.26-5.41,5.54a13.81,13.81,0,0,0-1.47,27.43c5.91,1.06,5.91,1.06,7,7C36.2,191,43.7,195.73,52.8,194Zm144.38.14a57.43,57.43,0,0,0,6,0,13.82,13.82,0,0,0,12.3-12.53c.39-4.51,1.33-5.46,5.85-5.88A13.79,13.79,0,0,0,233,156.79c-2.27-5.37-6.46-8.21-12.28-8.63-3.24-.24-5.08-1.79-5.12-4.66-.12-7.83-6.54-15.63-18.4-13.57Z"/></svg>