<svg id="Capa_1" data-name="Capa 1" xmlns="http://www.w3.org/2000/svg" viewBox="0 0 250 250"><defs><style>.cls-1{fill:#203c79;}</style></defs><path class="cls-1" d="M68.65,125.68H44.92c-9.56,0-16-6.41-16.06-15.94,0-8.85,0-17.85,0-26.55,0-3.86,0-14.79,0-14.79l-1.35.17c-1,.13-1.89.28-2.8.44a28.78,28.78,0,0,1-4.71.55l-.55,0a10.72,10.72,0,0,1-9.61-8,11.05,11.05,0,0,1,3.8-11.94C19.72,45.11,26,40.58,32,36.19l17.89-13q7.65-5.57,15.31-11.13a12.55,12.55,0,0,1,7.37-2.72,12,12,0,0,1,7.06,2.56c19.6,14.21,35.77,26,50.89,37,5.17,3.77,6.67,10,3.64,15.17a10.91,10.91,0,0,1-9.57,5.59h0a13.64,13.64,0,0,1-5.54-1.24,6.92,6.92,0,0,0-.72-.26l-.53-.18-1.58-.54V83q0,13.44,0,26.87c0,7.44-4,13.08-10.78,15.07a18.53,18.53,0,0,1-5.23.68Q84.42,125.69,68.65,125.68Zm3.56-53.53q3,0,5.91,0c5.84.06,9.19,3.47,9.2,9.36V120.7h1.2c1.43,0,2.84,0,4.23,0l4,0c2,0,3.64,0,5.17-.13a10,10,0,0,0,9.28-10.14c0-14.22,0-29.14,0-45.62a4.15,4.15,0,0,0-1.54-3Q98.94,54,88.15,46.12l-13.69-10a3.21,3.21,0,0,0-1.9-.72,3.31,3.31,0,0,0-1.92.72L54.94,47.59Q45.16,54.7,35.4,61.82a4,4,0,0,0-1.54,2.87c0,16.3-.09,31,0,46,0,5.69,4.32,9.92,10.19,10q1.71,0,3.42,0H57.77V106.24q0-12.46,0-24.91c0-5.66,3.39-9.07,9-9.15C68.62,72.16,70.42,72.15,72.21,72.15Zm-4.65,5c-3.7,0-4.83,1.14-4.83,4.82v38.63H82.05l.2-1,0-.22a2.73,2.73,0,0,0,.07-.54v-6.61q0-15.59,0-31.15c0-1.78-.71-3.91-4-3.95-1.67,0-3.35,0-5,0Zm5-47.83A4.58,4.58,0,0,1,75,30.45l38.43,27.93q3.49,2.55,7,5.08a6.55,6.55,0,0,0,3.87,1.32,6.7,6.7,0,0,0,3.06-.77,6.08,6.08,0,0,0,3.35-5.21,7.26,7.26,0,0,0-3.46-6.21q-23.51-17.06-47-34.14l-2.42-1.76c-2-1.49-3.57-2.36-5.27-2.36s-3.27.9-5.39,2.44L38.75,37.42l-9.49,6.89L25.59,47c-2.78,2-5.54,4-8.29,6a6.94,6.94,0,0,0-3,5.31,6.19,6.19,0,0,0,2.32,5,5.86,5.86,0,0,0,3.83,1.42,8.54,8.54,0,0,0,5-1.85l44.7-32.47A4.43,4.43,0,0,1,72.55,29.3Z"/><path class="cls-1" d="M181.31,240.65a57.65,57.65,0,0,1-41-17.37,58.65,58.65,0,0,1,41.61-100H182a58.15,58.15,0,0,1,41.43,17.22,58.94,58.94,0,0,1,17.18,42.09c-.1,32-26.63,58.06-59.13,58.06Zm.61-112.42a53.76,53.76,0,0,0-.13,107.51h.15A53.76,53.76,0,0,0,182,128.23Z"/><path class="cls-1" d="M84,201.78H67.53c-7.46,0-12.1-4.68-12.1-12.18,0-8.88,0-29.13,0-29.13V157l-2.14,2.69c0,.06-4.88,6.12-7.2,8.84A5,5,0,0,1,43.86,170a1.88,1.88,0,0,1-.57.09,1.41,1.41,0,0,1-1.37-.85,5.46,5.46,0,0,1-.15-3,4,4,0,0,1,.92-1.3c.22-.24.43-.48.62-.72q6-7.68,12.08-15.34a3.73,3.73,0,0,1,2.48-1.66,3.81,3.81,0,0,1,2.52,1.69q6.67,8.44,13.32,16.9c1.25,1.59.85,2.57.36,3.25a2.25,2.25,0,0,1-1.82,1.06,2.34,2.34,0,0,1-.83-.16,4.36,4.36,0,0,1-1.74-1.35c-1.92-2.29-7.13-8.8-7.18-8.87l-2.13-2.66v3.41s0,20.24,0,29.3c0,4.53,2.51,7,7,7h41a14.88,14.88,0,0,1,2,.09,2.3,2.3,0,0,1,2.13,2.28,2.36,2.36,0,0,1-1.93,2.47,8.49,8.49,0,0,1-1.74.12Z"/><path class="cls-1" d="M199.72,105.76a3.75,3.75,0,0,1-2.52-1.69q-6.67-8.43-13.33-16.89c-1.24-1.6-.84-2.57-.35-3.25a2.23,2.23,0,0,1,1.82-1.06,2.56,2.56,0,0,1,.83.15,4.49,4.49,0,0,1,1.74,1.36c1.92,2.29,7.12,8.8,7.18,8.86l2.13,2.67V92.5s0-20.24,0-29.31c0-4.53-2.5-7-7-7h-41a15.1,15.1,0,0,1-2-.09A2.3,2.3,0,0,1,145,53.78a2.37,2.37,0,0,1,1.94-2.47,8.49,8.49,0,0,1,1.74-.12l25.09,0,16.32,0c7.46,0,12.1,4.67,12.11,12.18,0,8.88,0,29.12,0,29.12v3.43l2.14-2.68c0-.06,4.89-6.12,7.2-8.84A5,5,0,0,1,213.72,83a2,2,0,0,1,.58-.09,1.41,1.41,0,0,1,1.37.84,5.5,5.5,0,0,1,.14,3,3.92,3.92,0,0,1-.91,1.3c-.22.24-.44.48-.63.72q-6,7.68-12.07,15.33A3.72,3.72,0,0,1,199.72,105.76Z"/><path class="cls-1" d="M181.9,227.89a7.77,7.77,0,0,1-7.78-6.82,3.69,3.69,0,0,0-2.79-3.56c-8.39-3-13.83-8.73-16.19-16.91a8,8,0,0,1,5.11-10.06,8.67,8.67,0,0,1,2.51-.37,7.73,7.73,0,0,1,7.44,5.6c1.28,4.13,4.05,6.53,8.45,7.35a21.1,21.1,0,0,0,3.82.37,17.28,17.28,0,0,0,7.43-1.65c2.07-1,3.32-2.56,3.43-4.34a5,5,0,0,0-2.62-4.4,28.56,28.56,0,0,0-7.21-2.89l-.47-.14c-1.66-.5-3.36-.9-5-1.29a49.12,49.12,0,0,1-7.8-2.29c-9.32-3.91-13.83-10.72-13.41-20.25.41-9.15,5.13-15.55,14.45-19.57a4.07,4.07,0,0,0,2.87-3.83c.26-3.67,3.69-6.73,7.64-6.82H182a7.77,7.77,0,0,1,7.84,7,3.84,3.84,0,0,0,2.8,3.48A25.09,25.09,0,0,1,206.67,160c1.92,4.27.37,8.93-3.61,10.86a8.08,8.08,0,0,1-3.51.8,7.7,7.7,0,0,1-7.13-4.71A11.1,11.1,0,0,0,182,160.41a12.2,12.2,0,0,0-5.6,1.34c-.92.49-3.75,2-3.72,5.42,0,2.43,1.52,4.19,4.22,5s5.16,1.34,7.69,1.93c1.4.33,2.8.65,4.19,1a31.21,31.21,0,0,1,13.52,6.77,21.32,21.32,0,0,1,6.68,18.8c-1.07,7-5.71,12.65-13.08,16l-.29.14a1.59,1.59,0,0,1-.33.14c-2.71.64-5.33,1.82-6.09,6.07-.55,3.1-4.12,4.95-7.25,4.95Zm-19.1-32.75a3.08,3.08,0,0,0-1,.16c-1.7.53-2.42,2-1.92,4a18.57,18.57,0,0,0,5.29,8.92,22.78,22.78,0,0,0,11.15,5.69c1.92.43,2.55,1.21,2.59,3.21,0,.28,0,.57,0,.85a6.22,6.22,0,0,0,.18,2.4c.35,1,1.5,2.48,2.78,2.5s2.45-1.4,2.87-2.27a4.28,4.28,0,0,0,.25-2.24c0-.21,0-.42,0-.62,0-2.7.42-3.17,3.31-3.92a33.27,33.27,0,0,0,7.58-2.79c5.15-2.79,8.12-7.31,8.36-12.73A16.64,16.64,0,0,0,197,183.92a32.27,32.27,0,0,0-11-4.44l-2.8-.64a66,66,0,0,1-8.82-2.41c-4.42-1.68-6.66-4.86-6.67-9.48a10.15,10.15,0,0,1,4.3-8.27,16.43,16.43,0,0,1,10-3.23,16.62,16.62,0,0,1,9.31,2.74,17.58,17.58,0,0,1,5.58,6.58,3.89,3.89,0,0,0,3.12,1.71,2.6,2.6,0,0,0,2.19-1.24,3.5,3.5,0,0,0,.08-2.91,6.51,6.51,0,0,0-.33-.71,1.34,1.34,0,0,1-.12-.24c-2.79-5.8-7.47-9.52-14.32-11.36-2.16-.58-2.52-1.06-2.54-3.41,0-.24,0-.49,0-.74a5.44,5.44,0,0,0-.22-2.41c-.4-1-1.62-2.31-2.9-2.31s-2.5,1.5-2.8,2.54a7.53,7.53,0,0,0-.16,2.48c0,.36,0,.71,0,1.05A2.56,2.56,0,0,1,176.8,150l-1.1.35a25.5,25.5,0,0,0-2.62.91c-7.13,3-11,8.08-11.35,15-.41,7.34,3.19,12.78,10.41,15.73a56.55,56.55,0,0,0,9.1,2.56c.71.16,1.42.31,2.12.48,4.14,1,8.11,2,11.25,4.77a10,10,0,0,1,3.59,8.39,9.72,9.72,0,0,1-4.84,7.46,19.81,19.81,0,0,1-10.44,2.79l-.95,0c-8.91-.34-14.1-3.78-16.34-10.82C164.93,195.38,163.42,195.14,162.8,195.14Z"/></svg>