<svg id="Capa_1" data-name="Capa 1" xmlns="http://www.w3.org/2000/svg" viewBox="0 0 250 250"><defs><style>.cls-1,.cls-2{fill:#203c79;stroke:#203c79;stroke-miterlimit:10;}.cls-1{stroke-width:3.57px;}.cls-2{stroke-width:1.19px;}</style></defs><path class="cls-1" d="M70.11,124.5A28.89,28.89,0,0,1,99.28,95c10,.08,18,4.43,23.83,12.71.22.32.42.67.64,1,1.14,1.6,1.67,1.48,3,0,2.5-2.84,4.8-6,7.79-8.22,17.37-12.87,42.8-1.89,45.44,19.58,1.37,11.14-1.64,21.46-7,31.12-6.22,11.22-15,20.2-25.42,27.52-6.36,4.47-13.29,8.11-20,12.13a4.64,4.64,0,0,1-4.83,0c-16.31-8.13-30.61-18.7-41.48-33.58A59,59,0,0,1,70.11,124.5Zm104.28.57a23.47,23.47,0,0,0-3.06-12.48c-8.72-15.06-29.57-15.56-39.52-1a11.58,11.58,0,0,1-3.07,3.24c-3.56,2.29-7.41,1-10.25-3.36A23.08,23.08,0,0,0,76,124.3c.07,11.06,3.8,20.94,10.19,29.82,9.84,13.69,23.1,23.26,37.94,30.83a2.75,2.75,0,0,0,2.14-.06c14.6-7.44,27.67-16.83,37.49-30.18C170.3,145.84,174.14,136,174.39,125.07Z"/><path class="cls-2" d="M221.23,107.21,195.06,83.9v-41a5.13,5.13,0,0,0,2.59-5.15,5.28,5.28,0,0,0-5.3-4.48h-31A5.29,5.29,0,0,0,156,37.74a5.14,5.14,0,0,0,2.6,5.15v8.54L135.34,30.72a15.25,15.25,0,0,0-20.3,0L29.31,107.06c-3.17,2.83-2.53,6.44,1.57,7.57a4.32,4.32,0,0,0,4-.94l11.17-9.89v98.38a10.68,10.68,0,0,0-9,9.7,10.5,10.5,0,0,0,3.08,8.18A11,11,0,0,0,48,223.15h70.41a4.05,4.05,0,0,0,4-3.14,4,4,0,0,0-3.89-4.82H48.4a2.77,2.77,0,0,1-2.83-2.47A2.62,2.62,0,0,1,48.18,210H202a2.77,2.77,0,0,1,2.83,2.48,2.59,2.59,0,0,1-.71,1.94,2.62,2.62,0,0,1-1.9.81H132a4.06,4.06,0,0,0-4,3.15,4,4,0,0,0,3.89,4.81H202.4a10.76,10.76,0,0,0,10.87-9.87,10.5,10.5,0,0,0-2.83-7.93,10.69,10.69,0,0,0-6.14-3.21V154.5a4.37,4.37,0,0,0-4-4.45,4.22,4.22,0,0,0-4.45,4.21V202H54.52V96.32l60.55-53.65a15.26,15.26,0,0,1,20.24,0l60.55,53.65v42.12a4.38,4.38,0,0,0,4,4.45,4.22,4.22,0,0,0,4.44-4.21V103.8l11.17,9.89a4.29,4.29,0,0,0,2.87,1.1h0A4.34,4.34,0,0,0,221.23,107.21ZM165.79,43.57h22.08V77.5L165.79,57.83Z"/></svg>