<svg id="Capa_1" data-name="Capa 1" xmlns="http://www.w3.org/2000/svg" viewBox="0 0 250 250"><defs><style>.cls-1{fill:#203c79;stroke:#203c79;stroke-miterlimit:10;stroke-width:1.11px;}</style></defs><path class="cls-1" d="M209.27,56.09c-5.69-1.68-10.57,0-14.69,4.14Q180.71,74.09,166.85,88c-.75.76-1.72,1.68-2.42,2.49l-.09.09V56.5a25.19,25.19,0,0,0-25.19-25.18H56.39A25.19,25.19,0,0,0,31.21,56.5v137a25.19,25.19,0,0,0,25.18,25.18h70a14.7,14.7,0,0,0,10.37-4.27l23.21-23A14.75,14.75,0,0,0,164.34,181V138a17.76,17.76,0,0,0,2.42-2q15.7-15.64,31.35-31.36a9,9,0,0,0,2.32-9.59,2.06,2.06,0,0,1,.64-2.46q6.41-6.33,12.73-12.73a21.54,21.54,0,0,0,2.35-2.71C221.63,69.4,218.19,58.73,209.27,56.09ZM134.17,207.6V197.27a8.36,8.36,0,0,1,8.36-8.36h10.33Zm2.45-25.15a8.36,8.36,0,0,0-8.36,8.36v21.93H58A20.75,20.75,0,0,1,37.2,192V58A20.75,20.75,0,0,1,58,37.26H137.6A20.75,20.75,0,0,1,158.35,58v38.5L156.9,98q-20.53,20.46-41,41a4.58,4.58,0,0,1-3.64,1.46q-33.43-.07-66.88,0h0a2.3,2.3,0,0,0-2.3,2.29v1.38a2.3,2.3,0,0,0,2.3,2.3h62.91a16.64,16.64,0,0,1-1.53,1.73,90.15,90.15,0,0,0-9,9,3.82,3.82,0,0,1-3.24,1.49q-24.54-.06-49.08,0h-.06a2.3,2.3,0,0,0-2.3,2.3v1.43a2.3,2.3,0,0,0,2.3,2.29H89.6c-1.83,3.68-3.67,7.23-5.38,10.84a2.16,2.16,0,0,1-2.34,1.36c-12.19,0-24.38,0-36.57,0A2.29,2.29,0,0,0,43,179.07v1.4a2.28,2.28,0,0,0,2.29,2.29h35.2c-1.45,2.32-1.77,4.37.55,6.06l-6.94,6.77,0,0a2.44,2.44,0,0,0-.22.23,3.17,3.17,0,0,0,5,3.61l0,0,6.23-6.48c2.25,3.19,4.5,1.81,6.82.61,3.7-1.91,7.4-3.86,11.19-5.58a29.94,29.94,0,0,0,8.89-6.27c14.62-14.75,29.34-29.41,44-44.11.53-.53,1-1.15,1.82-2.16l.39.15v46.88Zm-35.47-.28c-3.74,1.88-7.6,3.83-11.49,5.71a1.51,1.51,0,0,1-1.26-.3c-.84-.65-1.58-1.42-2.42-2.19l6.14-12.27Zm93.26-82.65c-.07.52-.71,1-1.16,1.45q-14,14.06-28.08,28.1c-.27.26-.55.5-.83.75l-4.79-4.63c.32-.35.59-.69.89-1q14-14.06,28.11-28.07a4.45,4.45,0,0,1,2.71-1.45,4.14,4.14,0,0,1,3,1.5C194.76,97,194.55,98.4,194.41,99.52Zm1.72-10.59a1.88,1.88,0,0,1-1.51.17c-4.11-1.23-7.54-.16-10.53,2.84q-14.91,15-29.86,29.88c-2.94,2.94-2.94,3.83,0,6.83.31.31.61.64.72.76l-48.52,48.52c-3.31-3.3-6.84-6.8-10.22-10.18L191.4,72.56,202,83.16C200.26,84.9,198.24,87,196.13,88.93Zm14.65-14.72a50.74,50.74,0,0,1-4.09,3.93L195.94,67.39A49.16,49.16,0,0,1,200.79,63a7.56,7.56,0,0,1,10,11.25Z"/><path class="cls-1" d="M56.3,61.54h82.79A6.93,6.93,0,0,0,146,54.62c0-1.58,0-3.16,0-4.74a6.55,6.55,0,0,0-6.54-6.53h-84A6.54,6.54,0,0,0,49,49.87v4.38A7.31,7.31,0,0,0,56.3,61.54Zm1.77-12h78.7a3,3,0,0,1,3.1,2.78A2.92,2.92,0,0,1,137,55.38H58.26a3,3,0,0,1-3.1-2.79A2.91,2.91,0,0,1,58.07,49.55Z"/><path class="cls-1" d="M97.61,67.61a33.35,33.35,0,1,0,33.24,33.13A33.38,33.38,0,0,0,97.61,67.61Zm-.12,60.65a27.29,27.29,0,1,1,27.3-27.19A27.34,27.34,0,0,1,97.49,128.26Z"/><rect class="cls-1" x="43.09" y="195.1" width="27.02" height="5.9" rx="2.29"/><path class="cls-1" d="M112.68,87.58c-2.41-2.4-3.67-2.41-6,0l-15.3,15.33c-1.27-1.35-2.34-2.59-3.51-3.73-1.72-1.67-3.21-1.65-4.94,0s-3.6,3.54-5.36,5.35-1.71,3.28.08,5.09q5.61,5.64,11.26,11.25c1.8,1.78,3.32,1.82,5.08.07q11.8-11.77,23.57-23.58c1.68-1.7,1.64-3.22,0-5S114.29,89.18,112.68,87.58ZM91.39,114.32l-7.49-7.49,1.43-1.53c1.08,1,2.11,2,3.12,3,2.37,2.36,3.63,2.36,6,0l13.66-13.66c.44-.44.91-.86,1.6-1.53l1.31,1.64Z"/></svg>