<svg id="Capa_1" data-name="Capa 1" xmlns="http://www.w3.org/2000/svg" viewBox="0 0 250 250"><defs><style>.cls-1{fill:#203c79;}</style></defs><path class="cls-1" d="M214,201.65c-11.48-9.31-21.55-15-23.25-13.33s5.42,10.28,16.65,19.86c12.21,10.41,24.54,18,26.5,16S226.48,211.76,214,201.65ZM230.07,221c-1.64,1.63-11.88-4.62-22.15-13.34-9.57-8.12-15.7-15.5-14.25-16.93s10.08,3.48,19.83,11.42C224,210.66,231.7,219.38,230.07,221ZM57.38,97.54l-.52-.17v-9.6A5.91,5.91,0,0,1,60.25,90a1.81,1.81,0,1,0,2.83-2.27,10.33,10.33,0,0,0-6.22-3.51V79.66a1.78,1.78,0,0,0-3.55,0v4.42c-4.65.58-7.83,3.62-7.83,7.59,0,5.08,3.88,7.08,7.69,8.37l.14,0v11a8.52,8.52,0,0,1-5.13-3.2,1.84,1.84,0,0,0-2.27-.54,1.87,1.87,0,0,0-.63,2.85,12.87,12.87,0,0,0,8,4.48v4.78a1.78,1.78,0,1,0,3.55,0v-4.68c5.41-.49,8.86-3.69,8.86-8.3C65.72,101.42,62.39,99.25,57.38,97.54Zm-4.07-1.4c-3.08-1.17-4-2.26-4-4.47,0-2.8,2.22-3.73,4-4Zm3.55,15.07v-9.92c3.93,1.37,5,2.53,5,5.19S60,110.79,56.86,111.21Zm81.85,71a29,29,0,1,0-29-29A29.07,29.07,0,0,0,138.71,182.2Zm0-53.57a24.54,24.54,0,1,1-24.54,24.53A24.56,24.56,0,0,1,138.71,128.63Zm97.79,91.85A170.3,170.3,0,0,0,218,202.71a170.3,170.3,0,0,0-20.76-15.13c-4.55-2.71-7.82-4.12-10.13-4.3a2.74,2.74,0,0,0-1.81.15,3.28,3.28,0,0,0-1.58,1,2.83,2.83,0,0,0-.32.45,2.2,2.2,0,0,0-.31.3l-6.5,7.76V189a2,2,0,0,0,0-.43,3.39,3.39,0,0,0,0-.55c0-3-3.7-4.9-12.36-6.3l-.19,0a38.16,38.16,0,1,0-50.61,0l-.47.07c-8.67,1.4-12.36,3.28-12.36,6.3a3.39,3.39,0,0,0,0,.55,2,2,0,0,0,0,.43v10.54c0,1.33.72,2.43,2.26,3.38-1.54.94-2.26,2-2.26,3.37a3.39,3.39,0,0,0,0,.55,2,2,0,0,0,0,.43v10.54c0,2.36,2.29,4,7.46,5.31a2.69,2.69,0,0,0,0,1.17,2.1,2.1,0,0,0,0,.43v10.54c0,3,3.7,4.9,12.37,6.3a170.46,170.46,0,0,0,25.63,1.71,170.6,170.6,0,0,0,25.64-1.71c8.66-1.4,12.36-3.28,12.36-6.3V224.75a3.13,3.13,0,0,0,0-.43,4.91,4.91,0,0,0,0-.55c0-2.36-2.29-4-7.45-5.31a3.18,3.18,0,0,0,.06-.62V207.3a2,2,0,0,0,0-.43,3.39,3.39,0,0,0,0-.55c0-1.33-.73-2.43-2.26-3.37,1.54-.95,2.26-2,2.26-3.38V199a39,39,0,0,0,5.17,7.1,169.52,169.52,0,0,0,18.56,17.77A169.42,169.42,0,0,0,221,239c7.54,4.49,11.59,5.42,13.52,3.11l6.77-8.08a3.75,3.75,0,0,0,.24-.36,3.71,3.71,0,0,0,.39-.4C243.88,230.93,242.25,227.12,236.5,220.48Zm-98-10.65c-16.81,0-28.8-1.9-32.59-3.51a22.08,22.08,0,0,1,3.62-1.08c1,.22,2.13.43,3.34.62a169,169,0,0,0,25.63,1.72,169.16,169.16,0,0,0,25.64-1.72c1.21-.19,2.31-.4,3.33-.61a21,21,0,0,1,3.62,1.07C167.34,207.93,155.36,209.83,138.54,209.83Zm25.52,2.8v7c-1.37.23-2.9.44-4.56.64v-7C161.1,213.06,162.63,212.85,164.06,212.63ZM155,213.68v7c-1.45.13-3,.24-4.57.33v-7C152,213.91,153.52,213.81,155,213.68Zm-9.07.52v7c-1.47.05-3,.09-4.56.11v-7C142.91,214.28,144.43,214.25,145.93,214.2Zm-9.06.11v7c-1.57,0-3.09,0-4.57-.08v-7C133.8,214.28,135.33,214.3,136.87,214.31Zm-9.07-.25v7c-1.59-.08-3.11-.18-4.56-.29v-7C124.72,213.88,126.24,214,127.8,214.06Zm-9.06-.69v7c-1.66-.19-3.18-.39-4.57-.6v-7C115.62,213,117.13,213.2,118.74,213.37Zm-4.57-11.88v-7c1.45.21,3,.4,4.57.57v7C117.08,201.9,115.56,201.7,114.17,201.49Zm9.07,1v-7c1.48.12,3,.22,4.56.29v7C126.21,202.72,124.69,202.62,123.24,202.51Zm9.06.48v-7c1.5,0,3,.06,4.57.07v7C135.3,203.06,133.78,203,132.3,203Zm9.07.07v-7c1.54,0,3.06-.05,4.56-.1v7C144.46,203,142.94,203,141.37,203.06Zm9.06-.32v-7c1.56-.09,3.09-.19,4.57-.31v7C153.55,202.54,152,202.65,150.43,202.74Zm9.07-.78v-7c1.6-.18,3.13-.38,4.56-.61v6.95C162.69,201.54,161.16,201.76,159.5,202Zm9.06,9.8a27.5,27.5,0,0,0,3.48-1v6.61a11.64,11.64,0,0,1-3.48,1.31Zm0-11.37v-6.9a29.39,29.39,0,0,0,3.48-1v6.6A11.64,11.64,0,0,1,168.56,200.39Zm-63.51-47.23a33.66,33.66,0,1,1,33.66,33.67A33.7,33.7,0,0,1,105.05,153.16Zm13.5,32.39a38,38,0,0,0,40.27,0c6,.69,10.32,1.62,12.31,2.47-3.79,1.61-15.77,3.51-32.59,3.51s-28.8-1.9-32.59-3.51C108,187.18,112.36,186.24,118.55,185.55Zm-13.5,6.93a34.38,34.38,0,0,0,4.62,1.27v6.91a14.4,14.4,0,0,1-4.62-1.58Zm4.62,26.45a14.4,14.4,0,0,1-4.62-1.58v-6.61a31.64,31.64,0,0,0,4.62,1.27Zm7.39,17.46a14.43,14.43,0,0,1-4.63-1.59v-6.6a32.17,32.17,0,0,0,4.63,1.27Zm9.06,1.42c-1.65-.18-3.17-.38-4.56-.59v-7c1.44.21,3,.41,4.56.58Zm9.07.72c-1.59-.08-3.12-.18-4.57-.3v-7c1.49.11,3,.21,4.57.29Zm9.06.27q-2.34,0-4.56-.09v-7c1.5,0,3,.07,4.56.08Zm9.07-.13c-1.47.06-3,.09-4.57.11v-7c1.55,0,3.07,0,4.57-.1Zm9.06-.53c-1.44.12-3,.23-4.56.33v-7c1.56-.08,3.09-.19,4.56-.31Zm9.07-1.1c-1.37.22-2.9.44-4.57.64v-7c1.61-.19,3.14-.39,4.57-.62Zm8-2.24a11.31,11.31,0,0,1-3.48,1.32v-6.9a29.83,29.83,0,0,0,3.48-1Zm-.91-11c-3.79,1.62-15.77,3.51-32.59,3.51-14.21,0-24.94-1.35-30.23-2.74a183.17,183.17,0,0,0,22.84,1.31,169.16,169.16,0,0,0,25.64-1.72,41.42,41.42,0,0,0,8.09-2A32.27,32.27,0,0,1,178.52,223.77Zm1.52-28,4.24-5.06a27.61,27.61,0,0,0,2,3l-4.43,5.29A11.44,11.44,0,0,1,180,195.81Zm4.69,6.84,4.46-5.33c.94,1.09,2,2.23,3.1,3.4l-4.48,5.35Q186.08,204.24,184.73,202.65Zm6.24,6.66,4.49-5.36c1,1,2.16,2.1,3.3,3.17l-4.5,5.38Q192.52,210.85,191,209.31Zm6.61,6.23,4.5-5.38c1.12,1,2.26,2,3.43,3l-4.5,5.39C199.82,217.53,198.67,216.53,197.58,215.54Zm6.87,5.91,4.51-5.39c1.19,1,2.37,1.94,3.55,2.87L208,224.32C206.84,223.4,205.66,222.45,204.45,221.45Zm7.12,5.62,4.5-5.38c1.25.95,2.48,1.84,3.69,2.71l-4.5,5.37C214.08,228.93,212.84,228,211.57,227.07Zm7.41,5.26,4.49-5.35c1.34.9,2.62,1.72,3.87,2.49l-4.47,5.34C221.67,234.08,220.37,233.26,219,232.33Zm12.43,6.48a14.13,14.13,0,0,1-4.56-1.75l4.44-5.3a33.21,33.21,0,0,0,4.36,2ZM238,227.57c-2.3,2.3-16.85-6.69-31.08-18.87-12.92-11.06-21-20.9-19-22.81s13.44,4.54,26.69,15.24C229.12,212.91,240.25,225.27,238,227.57Zm-145-128.4a38.17,38.17,0,1,0-63.44,28.56l-.19,0c-8.67,1.4-12.37,3.28-12.37,6.29a3.31,3.31,0,0,0,.05.55,2.1,2.1,0,0,0-.05.43v10.54c0,1.33.73,2.44,2.27,3.39-1.53.94-2.27,2-2.27,3.36a3.31,3.31,0,0,0,.05.55,2.1,2.1,0,0,0-.05.43v10.54a3.29,3.29,0,0,0,.07.63c-5.16,1.28-7.45,2.94-7.45,5.31a3.31,3.31,0,0,0,0,.55,2,2,0,0,0,0,.43V181.3c0,2.4,2.35,4.08,7.68,5.37A3.24,3.24,0,0,0,17,188.6a2,2,0,0,0-.05.43v10.54c0,1.33.73,2.43,2.27,3.38-1.53.94-2.27,2-2.27,3.37a3.41,3.41,0,0,0,.05.55,2,2,0,0,0-.05.43v10.54a3.63,3.63,0,0,0,1.67,3,3.62,3.62,0,0,0-1.67,3,3.31,3.31,0,0,0,.05.55,2.1,2.1,0,0,0-.05.43v10.54c0,3,3.7,4.9,12.37,6.3a170.46,170.46,0,0,0,25.63,1.71,170.6,170.6,0,0,0,25.64-1.71c8.66-1.4,12.36-3.28,12.36-6.3V224.75a3.13,3.13,0,0,0,0-.43,3.31,3.31,0,0,0,0-.55,3.63,3.63,0,0,0-1.66-3,3.62,3.62,0,0,0,1.66-3V207.3a3,3,0,0,0,0-.43,3.39,3.39,0,0,0,0-.55c0-1.33-.73-2.43-2.26-3.37,1.54-.95,2.26-2,2.26-3.38V189a3,3,0,0,0,0-.43,3.39,3.39,0,0,0,0-.55c0-2.4-2.36-4.08-7.69-5.38a3.19,3.19,0,0,0,.3-1.37V170.76a2,2,0,0,0,0-.43,3.31,3.31,0,0,0,0-.55,3.1,3.1,0,0,0-.07-.62c5.17-1.28,7.46-2.95,7.46-5.32V153.3a3.13,3.13,0,0,0,0-.43,3.31,3.31,0,0,0,0-.55c0-1.32-.73-2.42-2.26-3.37a3.93,3.93,0,0,0,2.26-3.38V135a3.13,3.13,0,0,0,0-.43,3.31,3.31,0,0,0,0-.55c0-3-3.7-4.89-12.36-6.29l-.48-.07A38.09,38.09,0,0,0,92.91,99.17Zm-71.5,39.31a27.69,27.69,0,0,0,3.49,1v6.9a11.4,11.4,0,0,1-3.49-1.32Zm33.5,15.1a170.6,170.6,0,0,0,25.64-1.71c1.21-.2,2.32-.4,3.34-.62a23.11,23.11,0,0,1,3.61,1.07c-3.79,1.62-15.77,3.51-32.59,3.51s-28.8-1.89-32.59-3.51A23.48,23.48,0,0,1,26,151.25c1,.22,2.12.42,3.33.62A170.46,170.46,0,0,0,54.91,153.58ZM29.4,147.32v-7c1.42.23,3,.43,4.56.62v7C32.29,147.76,30.77,147.54,29.4,147.32Zm9.06,1.1v-7c1.48.12,3,.23,4.57.31v7C41.43,148.65,39.91,148.54,38.46,148.42Zm9.07.54v-7c1.49.05,3,.08,4.56.1v7C50.52,149,49,149,47.53,149Zm9.06.12v-7c1.54,0,3.06,0,4.56-.08v7C59.68,149,58.16,149.06,56.59,149.08Zm9.06-.27v-7c1.57-.08,3.09-.18,4.57-.29v7C68.77,148.63,67.25,148.73,65.65,148.81Zm9.07-.72v-7c1.61-.17,3.12-.37,4.56-.58v7C77.9,147.71,76.37,147.91,74.72,148.09ZM81,174.21v6.6a14.59,14.59,0,0,1-4.62,1.59v-6.92A34.38,34.38,0,0,0,81,174.21Zm-1.74-8.44c-1.38.21-2.91.41-4.56.59v-7c1.61-.17,3.12-.37,4.56-.58Zm-9.06-6v7c-1.45.12-3,.22-4.57.3v-7C67.22,160,68.74,159.89,70.22,159.78Zm-9.07.46v7q-2.2.06-4.56.09v-7C58.13,160.31,59.65,160.28,61.15,160.24Zm-9.06.07v7c-1.57,0-3.09-.05-4.56-.11v-7C49,160.26,50.55,160.29,52.09,160.31ZM43,160v7c-1.6-.1-3.12-.21-4.57-.33v-7C39.94,159.81,41.46,159.92,43,160ZM34,159.25v7c-1.67-.2-3.19-.42-4.56-.64v-7C30.82,158.86,32.36,159.06,34,159.25Zm-12.55-2.5a29.47,29.47,0,0,0,3.49,1v6.9a11.4,11.4,0,0,1-3.49-1.32Zm-3.9,25.37A11.26,11.26,0,0,1,14,180.81v-6.6a31.27,31.27,0,0,0,3.48,1Zm-2.57-12.34a31.35,31.35,0,0,1,6.25-1.6,41.23,41.23,0,0,0,8.09,2,170.46,170.46,0,0,0,25.63,1.71,181,181,0,0,0,22.84-1.31c-5.28,1.4-16,2.75-30.22,2.75C30.71,173.29,18.72,171.4,14.94,169.78Zm57,6.48v7c-1.39.22-2.91.42-4.57.6v-7C68.94,176.66,70.45,176.47,71.9,176.26Zm-9.07,1v7q-2.17.16-4.56.3v-7Q60.61,177.41,62.83,177.23Zm-9.06.47v7c-1.48,0-3,.07-4.57.08v-7C50.74,177.76,52.27,177.74,53.77,177.7Zm-9.07.07v7c-1.57,0-3.09-.06-4.56-.11v-7C41.64,177.71,43.16,177.75,44.7,177.77Zm-9.06-.31v7c-1.6-.09-3.12-.2-4.57-.33v-7C32.55,177.27,34.07,177.37,35.64,177.46Zm19.27,30.12a169.16,169.16,0,0,0,25.64-1.72c1.21-.19,2.32-.4,3.34-.62a21.91,21.91,0,0,1,3.61,1.08c-3.79,1.61-15.77,3.51-32.59,3.51s-28.8-1.9-32.59-3.51A21.43,21.43,0,0,1,26,205.25c1,.21,2.12.42,3.33.61A169,169,0,0,0,54.91,207.58ZM29.4,201.31v-6.95c1.42.23,3,.43,4.56.61v7C32.29,201.76,30.77,201.54,29.4,201.31Zm9.06,1.1v-7c1.48.12,3,.22,4.57.31v7C41.43,202.65,39.91,202.54,38.46,202.41Zm9.07.54v-7c1.49,0,3,.09,4.56.1v7C50.52,203,49,203,47.53,203Zm9.06.12v-7c1.54,0,3.06,0,4.56-.07v7C59.68,203,58.16,203.06,56.59,203.07Zm9.06-.27v-7c1.57-.07,3.09-.17,4.57-.29v7C68.77,202.62,67.25,202.72,65.65,202.8Zm9.07-.71v-7c1.61-.17,3.12-.36,4.56-.57v7C77.9,201.7,76.37,201.9,74.72,202.09Zm4.56,10.7v7c-1.38.21-2.91.41-4.56.6v-7C76.33,213.2,77.84,213,79.28,212.79Zm-9.06,1v7c-1.45.11-3,.21-4.57.29v-7C67.22,214,68.74,213.88,70.22,213.77Zm-9.07.46v7c-1.47,0-3,.07-4.56.08v-7C58.13,214.3,59.65,214.28,61.15,214.23Zm-9.06.07v7c-1.57,0-3.09-.06-4.56-.11v-7C49,214.25,50.55,214.28,52.09,214.3ZM43,214v7c-1.6-.09-3.12-.2-4.57-.33v-7C39.94,213.81,41.46,213.91,43,214ZM34,213.24v7c-1.67-.2-3.19-.41-4.56-.64v-7C30.82,212.85,32.36,213.06,34,213.24Zm-9.06-1.48v6.9a11.74,11.74,0,0,1-3.49-1.31v-6.61A27.69,27.69,0,0,0,24.9,211.76Zm0-11.37a11.74,11.74,0,0,1-3.49-1.31v-6.6a29.6,29.6,0,0,0,3.49,1Zm1.67-23.69v7c-1.67-.2-3.19-.42-4.56-.65v-6.95C23.43,176.32,25,176.52,26.57,176.7ZM24.9,236.12a11.4,11.4,0,0,1-3.49-1.32v-6.6a29.47,29.47,0,0,0,3.49,1ZM34,237.68c-1.67-.2-3.19-.42-4.56-.64v-7c1.42.23,3,.43,4.56.62Zm9.07.79c-1.6-.1-3.12-.21-4.57-.33v-7c1.48.12,3,.23,4.57.31Zm9.06.31c-1.57,0-3.09-.05-4.56-.11v-7c1.49.05,3,.08,4.56.1Zm9.06-.07q-2.2.06-4.56.09v-7c1.54,0,3.06,0,4.56-.08Zm9.07-.48c-1.45.12-3,.22-4.57.3v-7c1.57-.08,3.09-.18,4.57-.29Zm9.06-1c-1.38.21-2.91.41-4.56.59v-7c1.61-.17,3.12-.37,4.56-.58Zm-24.37-9.94c-16.81,0-28.8-1.89-32.59-3.51a17.4,17.4,0,0,1,1.94-.65c1.44.37,3.1.7,5,1a169,169,0,0,0,25.63,1.72,169.16,169.16,0,0,0,25.64-1.72c1.92-.31,3.58-.64,5-1a17.15,17.15,0,0,1,1.93.65C83.71,225.39,71.73,227.28,54.91,227.28Zm33.5,7.52a14.43,14.43,0,0,1-4.63,1.59v-6.92a31.81,31.81,0,0,0,4.63-1.27Zm0-17.45a9.66,9.66,0,0,1-2.84,1.14c-.56-.15-1.16-.28-1.79-.41V212a31.81,31.81,0,0,0,4.63-1.27Zm0-18.27a14.49,14.49,0,0,1-4.63,1.58v-6.91a34.57,34.57,0,0,0,4.63-1.27Zm-.91-11c-3.79,1.61-15.77,3.51-32.59,3.51s-28.8-1.9-32.59-3.51c.22-.1.48-.19.75-.29a173.27,173.27,0,0,0,24.46,1.55,169.12,169.12,0,0,0,25.63-1.72,50.13,50.13,0,0,0,6.5-1.41A36.67,36.67,0,0,1,87.5,188.05Zm.91-24.7a14.43,14.43,0,0,1-4.63,1.59V158a31.81,31.81,0,0,0,4.63-1.27Zm0-18.27a14.43,14.43,0,0,1-4.63,1.59v-6.92a31.81,31.81,0,0,0,4.63-1.27Zm-.91-11c-3.79,1.62-15.77,3.51-32.59,3.51s-28.8-1.89-32.59-3.51c2-.85,6.27-1.77,12.32-2.46a38,38,0,0,0,40.26,0C81.1,132.25,85.48,133.19,87.5,134.05Zm-32.75-1.21A33.67,33.67,0,1,1,88.41,99.17,33.71,33.71,0,0,1,54.75,132.84Zm77.3,29a1.83,1.83,0,0,0-2.27-.53,1.85,1.85,0,0,0-.63,2.84,12.8,12.8,0,0,0,8,4.48v4.78a1.78,1.78,0,1,0,3.55,0v-4.68c5.41-.49,8.86-3.68,8.86-8.29,0-5.07-3.33-7.24-8.34-8.95l-.52-.16v-9.61a5.91,5.91,0,0,1,3.39,2.19,1.81,1.81,0,1,0,2.83-2.27,10.41,10.41,0,0,0-6.22-3.52v-4.5a1.78,1.78,0,1,0-3.55,0v4.42c-4.65.57-7.84,3.61-7.84,7.59,0,5.08,3.89,7.08,7.7,8.36l.14.05v11A8.49,8.49,0,0,1,132.05,161.88Zm8.68-6.6c3.93,1.37,5,2.54,5,5.2s-1.86,4.3-5,4.72Zm-7.55-9.61c0-2.81,2.22-3.73,4-4v8.48C134.1,149,133.18,147.88,133.18,145.67Zm84.29,62.57c-3.85-3.17-5.85-4.13-7.67-4.61l-.18,0-6.87-5.7a5.55,5.55,0,0,1,1.91.9c.55.34.8.35.59,0a9.16,9.16,0,0,0-5-3l-3-2.54c-.65-.54-1.27-.9-1.37-.79s.33.63,1,1.17l3,2.49c-.12.83,1.63,2.93,4.41,5.27,3.65,3.06,5.55,3.84,6.93,4.21h.05l8.41,7a8.82,8.82,0,0,1-3.1-1.49c-.59-.39-.87-.42-.67-.08A8.58,8.58,0,0,0,218,213c2,1.32,3.7,2.07,4.49,2l3.88,3.23c.81.67,1.56,1.13,1.68,1s-.45-.76-1.26-1.43l-3.8-3.16C223.21,213.71,221.07,211.21,217.47,208.24ZM204.66,201c-2-1.65-2.38-2.43-2.38-2.79l6,5A9.94,9.94,0,0,1,204.66,201Zm7.86,5c1.47.41,2.48,1,4.51,2.69s3.13,3,3.09,3.63ZM54.75,70.13a29,29,0,1,0,29,29A29.08,29.08,0,0,0,54.75,70.13Zm0,53.58A24.54,24.54,0,1,1,79.28,99.17,24.57,24.57,0,0,1,54.75,123.71Z"/><path class="cls-1" d="M241.59,153a2.53,2.53,0,1,0-5,.38l.38,6.57-.22.38L141.89,78.19,126.52,93,10.87,7.14a2.25,2.25,0,1,0-2.68,3.61l118.7,88.12,15.16-14.59,92.07,79.78-6.34,2.09a2.51,2.51,0,0,0-.59,4.48h0a2.59,2.59,0,0,0,2.25.3l11.1-3.67a2.54,2.54,0,0,0,1.73-2.55Z"/><path class="cls-1" d="M221.8,109.22a2.54,2.54,0,0,0-2.28-2.38,2.51,2.51,0,0,0-2.76,2.75l.34,6L107.74,21.23a2.25,2.25,0,1,0-2.94,3.41l110.26,95.1-.19.33L208,122.34a2.51,2.51,0,0,0-.6,4.48h0a2.63,2.63,0,0,0,2.25.29l11.09-3.67a2.51,2.51,0,0,0,1.73-2.54Z"/></svg>