<svg id="Capa_1" data-name="Capa 1" xmlns="http://www.w3.org/2000/svg" viewBox="0 0 250 250"><defs><style>.cls-1{fill:#203c79;}.cls-2{fill:none;stroke:#203c79;stroke-linecap:round;stroke-linejoin:round;stroke-width:9.01px;}</style></defs><path class="cls-1" d="M108.44,167.48c-.42,17.23-18,29-33.72,22.43-3.65-1.53-4.14-4.06-1.33-6.87q12.94-13,25.9-25.9c2.83-2.83,5.88-2.69,7.21,1.08C106.5,158.22,108.37,160.94,108.44,167.48Zm-7.58-2.41L81.33,184.45C91,186.34,102.3,178.09,100.86,165.07Z"/><path class="cls-1" d="M93.77,145.8c2.83,1,3.28,3.78,1.15,5.92q-13.45,13.54-27,27c-2.11,2.09-4.65,1.51-6-1.23-6.74-13.91,3.12-31.71,18.5-33.8C89.26,142.76,93.77,145.8,93.77,145.8Zm-8.08,4.89C75,148.85,65,159.48,67,169.36Z"/><path class="cls-2" d="M206,139.56h6.12a10.38,10.38,0,0,0,10.38-10.38V55.13a10.38,10.38,0,0,0-10.38-10.38H55.22A10.38,10.38,0,0,0,44.84,55.13v6.11"/><path class="cls-1" d="M120.49,96.16c1.05,0,1.92,0,2.79,0a2.93,2.93,0,1,1-.06,5.83c-2.61,0-5.22,0-7.82,0-2.33,0-3.62,1.1-3.62,3s1.3,2.92,3.64,2.94c1.67,0,3.33,0,5,0a8.79,8.79,0,0,1,1.65,17.45l-1.46.31c-.32,2.28.75,5.59-3,5.61s-2.74-3.28-3-5.74h-2.32c-2.16,0-3.46-1.18-3.43-3s1.32-2.9,3.51-2.92c2.55,0,5.1,0,7.66,0,2.16,0,3.49-1.16,3.48-2.93s-1.3-2.86-3.52-2.91c-2,0-4.11.06-6.15-.12a8.75,8.75,0,0,1-.49-17.37c1.06-.15,1.45-.5,1.37-1.55a9.1,9.1,0,0,1,.1-2.15,2.77,2.77,0,0,1,3-2.31,2.72,2.72,0,0,1,2.68,2.5A28.54,28.54,0,0,1,120.49,96.16Z"/><path class="cls-1" d="M79.67,107.6H95.14c2.24,0,3.48,1,3.5,2.87s-1.21,3-3.43,3q-15.63,0-31.26,0c-2.21,0-3.45-1.16-3.42-3s1.27-2.86,3.51-2.86Z"/><path class="cls-1" d="M153.13,107.6H168.6c2.23,0,3.52,1.06,3.56,2.85s-1.23,3-3.42,3q-15.63,0-31.28,0c-2.16,0-3.51-1.22-3.49-3s1.36-2.9,3.52-2.9Z"/><path class="cls-2" d="M121.66,158.2h73.12a10.38,10.38,0,0,0,10.38-10.38v-74a10.38,10.38,0,0,0-10.38-10.38H37.91A10.38,10.38,0,0,0,27.53,73.77v74.05A10.38,10.38,0,0,0,37.91,158.2h8.38"/><path class="cls-2" d="M110.87,140.87c.1.23.19.45.28.68h61.63A3.53,3.53,0,0,0,176.3,138a3.53,3.53,0,0,1,3.52-3.52H181a3.53,3.53,0,0,0,3.53-3.52V90.61A3.52,3.52,0,0,0,181,87.09h-1.2a3.53,3.53,0,0,1-3.52-3.52A3.53,3.53,0,0,0,172.78,80H59.91a3.53,3.53,0,0,0-3.52,3.53,3.53,3.53,0,0,1-3.52,3.52H51.66a3.52,3.52,0,0,0-3.52,3.52V131a3.53,3.53,0,0,0,3.52,3.52h1.21A3.53,3.53,0,0,1,56.39,138"/><circle class="cls-2" cx="83.27" cy="167.59" r="37.66"/></svg>