<svg id="Capa_1" data-name="Capa 1" xmlns="http://www.w3.org/2000/svg" viewBox="0 0 250 250"><defs><style>.cls-1{fill:#203c79;}</style></defs><path class="cls-1" d="M172.09,46.23c.06-.94.13-1.52.13-2.1,0-3.81,0-7.63,0-11.44.08-8.23,5.72-13.9,13.95-14,5.11-.06,10.21-.05,15.32,0,8.4.07,14,5.65,14,14q.06,26.4,0,52.79a4.54,4.54,0,0,0,1.58,3.68q7.56,7,15,14.24a14.93,14.93,0,0,1-.46,22.23,13.57,13.57,0,0,1-9.72,3.3c-2-.08-2.39.68-2.39,2.52q.07,48.54,0,97.08c0,7.37-4.33,12.85-11.31,14.36a12.62,12.62,0,0,1-2.75.23q-80.49,0-161,0c-8,0-14.06-6.15-14.06-14.41q0-48.45,0-96.9c0-3.28.17-2.76-2.71-2.85-6.43-.21-11.37-3.58-13.48-9.14a14.8,14.8,0,0,1,3.91-16.68l78.1-74.27,18.46-17.55c6.34-6,14.21-6,20.58,0l35.18,33.44C170.92,45.21,171.37,45.59,172.09,46.23Zm-47.2,189.08h78.63c.74,0,1.48,0,2.21,0a6.1,6.1,0,0,0,5.85-5.42,17.25,17.25,0,0,0,.09-2.39q0-50.65,0-101.31c0-3.84,1.25-5.07,5.09-5.1,2,0,4.07,0,6.09-.07a5.9,5.9,0,0,0,5.53-4.18c1.22-3.38,0-6-2.49-8.41q-47.91-45.48-95.76-91c-3.67-3.49-6.57-3.5-10.23,0l-68.33,65L23.89,108.66c-2.74,2.61-3.43,5.25-2.25,8.3,1.1,2.8,3.31,4.08,7.12,4.1,1.85,0,3.7-.06,5.54,0a3.84,3.84,0,0,1,4,4.1c0,.68,0,1.36,0,2v100.4c0,5.48,2.23,7.69,7.75,7.69ZM207.56,80.06c.05-1.16.11-1.75.11-2.34V33.25c0-4.59-2-6.6-6.66-6.63s-9.48,0-14.21,0-6.61,2-6.63,6.68c0,6.33-.06,12.67.05,19a4.41,4.41,0,0,0,1.21,2.84c5.68,5.54,11.47,11,17.22,16.44Z"/><path class="cls-1" d="M89,148.63c10,0,19.93,0,29.9,0,1.74,0,2.15-.52,2.15-2.18Q121,117,121,87.42a13.22,13.22,0,0,1,.22-2.74,3.86,3.86,0,0,1,7.5,0,13.22,13.22,0,0,1,.22,2.74q0,29.07,0,58.14c0,3.54-.37,3.09,3,3.09q29.34,0,58.7,0a8.81,8.81,0,0,1,2.71.35,3.75,3.75,0,0,1,2.45,4.09,3.85,3.85,0,0,1-3.39,3.37,24,24,0,0,1-2.4.06h-58.7c-2.37,0-2.38,0-2.38,2.46q0,29.34,0,58.69a14.85,14.85,0,0,1-.19,2.75,3.87,3.87,0,0,1-7.55,0,14,14,0,0,1-.2-2.75q0-29.34,0-58.69c0-2.47,0-2.48-2.54-2.48H60.34c-.62,0-1.23,0-1.85,0-2.66-.08-4.4-1.65-4.38-3.95s1.78-3.92,4.44-3.92Q73.78,148.61,89,148.63Z"/><path class="cls-1" d="M94.66,187.71c3.29,3.22,6.08,5.89,8.78,8.65a6.18,6.18,0,0,1,1.64,2.58,3.55,3.55,0,0,1-1.8,4.24,3.65,3.65,0,0,1-4.6-.5c-2.28-2.15-4.47-4.4-6.68-6.62-.74-.74-1.45-1.5-2.31-2.4-.58.52-1.08.93-1.54,1.38-2.32,2.3-4.61,4.62-6.92,6.91s-4.46,2.52-6.28.73-1.6-4,.64-6.27c2.74-2.72,5.51-5.42,8.54-8.38l-7.62-7.46c-.48-.47-1-.94-1.42-1.44-1.66-1.86-1.69-4-.1-5.62a3.94,3.94,0,0,1,5.77.15c2.51,2.43,5,4.94,7.45,7.41.38.39.79.76,1.74,1.64,1.06-1.29,2-2.61,3.16-3.8,1.77-1.88,3.59-3.71,5.49-5.47a3.86,3.86,0,0,1,5.62.08,3.92,3.92,0,0,1-.1,5.49c-2.46,2.58-5,5.08-7.55,7.58A10.35,10.35,0,0,1,94.66,187.71Z"/><path class="cls-1" d="M93.56,121.12c0,3.71,0,7.09,0,10.46a9.88,9.88,0,0,1-.24,2.37,3.85,3.85,0,0,1-4,2.87,3.78,3.78,0,0,1-3.59-3.37c-.13-1.09-.08-2.21-.11-3.31-.1-2.93-.21-5.85-.31-8.78l-8.62-.24c-.68,0-1.36,0-2,0-3-.06-4.75-1.52-4.75-4s1.73-3.93,4.75-4c2.76,0,5.53,0,8.3,0s2.65,0,2.66-2.74c0-3.14,0-6.28.1-9.41a3.79,3.79,0,0,1,3.75-3.61,4,4,0,0,1,4,3.23,8.59,8.59,0,0,1,.14,1.83c0,3.08,0,6.15,0,9.23,0,1.12.38,1.51,1.49,1.49,3.26,0,6.53,0,9.79,0,2.69,0,4.41,1.6,4.42,3.93s-1.65,3.9-4.38,4c-3,.07-6,0-9,0Z"/><path class="cls-1" d="M160.51,113.24c-5.16,0-10.32.06-15.48,0-3.37,0-5.26-3.08-3.77-5.82a3.91,3.91,0,0,1,3.65-2.1c10.38,0,20.76-.05,31.14,0a3.84,3.84,0,0,1,4,4.08c-.06,2.26-1.7,3.8-4.3,3.83C170.7,113.28,165.6,113.24,160.51,113.24Z"/><path class="cls-1" d="M160.44,121.06c5.1,0,10.19,0,15.29,0,2.86,0,4.59,1.78,4.35,4.3a3.55,3.55,0,0,1-2.88,3.39,11,11,0,0,1-2.56.24H146.27c-3.61,0-5.5-1.38-5.51-4s1.86-4,5.49-4Z"/><path class="cls-1" d="M160.25,192c-5,0-9.95,0-14.92,0-2.82,0-4.58-1.56-4.57-3.94s1.82-3.91,4.59-3.91h30.22c2.81,0,4.55,1.53,4.54,3.94s-1.71,3.9-4.56,3.91C170.45,192,165.35,192,160.25,192Z"/><path class="cls-1" d="M164.34,172.28a3.94,3.94,0,0,1-3.8,4,4.1,4.1,0,0,1-4.06-4,4,4,0,0,1,4.05-3.93A3.84,3.84,0,0,1,164.34,172.28Z"/><path class="cls-1" d="M164.34,203.73a3.85,3.85,0,0,1-3.94,4,3.93,3.93,0,1,1,.08-7.85A3.87,3.87,0,0,1,164.34,203.73Z"/></svg>